<?xml version="1.0" standalone="no"?>
<!DOCTYPE svg PUBLIC "-//W3C//DTD SVG 20010904//EN"
 "http://www.w3.org/TR/2001/REC-SVG-20010904/DTD/svg10.dtd">
<svg version="1.0" xmlns="http://www.w3.org/2000/svg"
 width="240.000000pt" height="240.000000pt" viewBox="0 0 240.000000 240.000000"
 preserveAspectRatio="xMidYMid meet">
<metadata>
Created by potrace 1.14, written by Peter Selinger 2001-2017
</metadata>
<g transform="translate(0.000000,240.000000) scale(0.100000,-0.100000)"
fill="#000000" stroke="none">
<path d="M1098 2298 l-3 -103 -46 -6 c-111 -16 -265 -72 -375 -137 -50 -29
-155 -116 -204 -168 -98 -105 -175 -236 -221 -376 -25 -79 -46 -181 -41 -200
1 -5 -45 -8 -103 -8 l-105 0 0 -100 0 -100 105 0 c58 0 104 -3 103 -7 -4 -17
15 -113 37 -188 82 -272 293 -508 554 -621 81 -35 210 -71 269 -76 l32 -2 0
-103 0 -103 100 0 100 0 0 105 c0 58 3 104 8 103 18 -5 121 15 190 38 326 106
573 359 663 679 18 65 32 132 32 163 0 9 28 12 104 12 l103 0 0 100 0 100
-103 0 c-92 0 -103 2 -104 18 -7 98 -56 251 -113 357 -147 273 -438 477 -727
512 l-53 6 0 103 0 104 -100 0 -99 0 -3 -102z m2 -503 l0 -195 100 0 100 0 0
195 c0 224 -10 208 106 176 142 -40 255 -105 357 -208 103 -102 168 -215 208
-357 32 -116 48 -106 -176 -106 l-195 0 0 -100 0 -100 196 0 196 0 -6 -37
c-18 -125 -89 -277 -176 -377 -111 -129 -241 -211 -404 -257 -116 -32 -106
-48 -106 176 l0 195 -100 0 -100 0 0 -195 c0 -224 11 -208 -110 -174 -271 74
-485 288 -559 559 -34 121 -50 110 174 110 l195 0 0 100 0 100 -195 0 c-224 0
-208 -10 -175 109 60 214 195 384 395 495 56 32 199 80 244 84 l31 2 0 -195z"/>
<path d="M1112 1379 c-146 -73 -146 -279 -1 -357 36 -20 54 -23 101 -19 72 6
115 31 153 88 26 38 30 53 30 110 0 59 -4 72 -31 110 -61 84 -163 112 -252 68z"/>
</g>
</svg>
